<?xml version="1.0" encoding="UTF-8"?><svg id="Layer_2" xmlns="http://www.w3.org/2000/svg" xmlns:xlink="http://www.w3.org/1999/xlink" viewBox="0 0 107.69 121.48"><defs><style>.cls-1{fill:#fff;}.cls-2{stroke:#a09a5c;stroke-width:3px;}.cls-2,.cls-3{stroke-miterlimit:10;}.cls-2,.cls-3,.cls-4{fill:none;stroke-linecap:round;}.cls-5{fill:url(#radial-gradient);}.cls-3,.cls-4{stroke:#fff;stroke-width:4px;}.cls-4{stroke-linejoin:round;}</style><radialGradient id="radial-gradient" cx="90.07" cy="59.44" fx="90.07" fy="59.44" r="82.29" gradientUnits="userSpaceOnUse"><stop offset="0" stop-color="#364f54"/><stop offset=".51" stop-color="#354d52"/><stop offset=".7" stop-color="#32474b"/><stop offset=".83" stop-color="#2e3c3f"/><stop offset=".93" stop-color="#282c2e"/><stop offset="1" stop-color="#231f20"/></radialGradient></defs><g id="Layer_1-2"><circle class="cls-3" cx="53.61" cy="60.37" r="1.8"/><line class="cls-2" x1="78.26" y1="61.97" x2="82.34" y2="58.32"/><line class="cls-2" x1="21.52" y1="64.64" x2="43" y2="43.15"/><line class="cls-2" x1="43.3" y1="43.02" x2="48.6" y2="50.87"/><line class="cls-2" x1="39.06" y1="57.78" x2="62.04" y2="93.7"/><line class="cls-2" x1="62.99" y1="57.88" x2="83.67" y2="90.21"/><line class="cls-4" x1="52.12" y1="112.25" x2="52.12" y2="119.48"/><line class="cls-4" x1="52.12" y1="2" x2="52.12" y2="9.23"/><path class="cls-5" d="m86.96,101.63l-13.34-17.49c7.67-5.85,12.06-14.58,12.06-23.97s-4.95-19.08-13.24-24.83l12.53-18.08c14.22,9.85,22.71,25.89,22.71,42.91s-7.55,31.42-20.73,41.47Z"/><path class="cls-1" d="m53.54,114C24.02,114,0,89.98,0,60.46S24.02,6.93,53.54,6.93c14.3,0,27.74,5.57,37.86,15.68l-16.26,16.26c-5.77-5.77-13.44-8.94-21.59-8.94-16.84,0-30.54,13.7-30.54,30.54s13.7,30.54,30.54,30.54c8.46,0,18.79-6.05,24.62-12.19l13.24,19.4c-10.06,10.6-23.25,15.79-37.86,15.79Z"/></g></svg>