<?xml version="1.0" encoding="UTF-8"?><svg id="Layer_2" xmlns="http://www.w3.org/2000/svg" xmlns:xlink="http://www.w3.org/1999/xlink" viewBox="0 0 222.13 241.53"><defs><style>.cls-1{fill:#fff;}.cls-2{opacity:.31;}.cls-3{stroke:#a09a5c;stroke-width:3px;}.cls-3,.cls-4{stroke-miterlimit:10;}.cls-3,.cls-4,.cls-5{fill:none;stroke-linecap:round;}.cls-6{fill:url(#radial-gradient);}.cls-7{fill:#fcf8e2;}.cls-4,.cls-5{stroke:#fff;stroke-width:4px;}.cls-5{stroke-linejoin:round;}</style><radialGradient id="radial-gradient" cx="-212.82" cy="68.54" fx="-212.82" fy="68.54" r="290.35" gradientTransform="translate(255.48 62.63) scale(.68 .85)" gradientUnits="userSpaceOnUse"><stop offset="0" stop-color="#364f54"/><stop offset=".51" stop-color="#354d52"/><stop offset=".7" stop-color="#32474b"/><stop offset=".83" stop-color="#2e3c3f"/><stop offset=".93" stop-color="#282c2e"/><stop offset="1" stop-color="#231f20"/></radialGradient></defs><g id="Layer_1-2"><rect class="cls-6" width="222.13" height="241.53"/><circle class="cls-4" cx="112.84" cy="122.58" r="1.8"/><line class="cls-3" x1="137.5" y1="124.19" x2="141.57" y2="120.54"/><line class="cls-3" x1="80.75" y1="126.85" x2="102.24" y2="105.37"/><line class="cls-3" x1="102.53" y1="105.23" x2="107.84" y2="113.09"/><line class="cls-3" x1="98.3" y1="119.99" x2="121.28" y2="155.91"/><line class="cls-3" x1="122.22" y1="120.09" x2="142.91" y2="152.43"/><line class="cls-5" x1="111.35" y1="174.46" x2="111.35" y2="181.7"/><line class="cls-5" x1="111.35" y1="64.21" x2="111.35" y2="71.45"/><g class="cls-2"><path class="cls-7" d="m146.2,163.84l-13.34-17.49c7.67-5.85,12.06-14.58,12.06-23.97s-4.95-19.08-13.24-24.83l12.53-18.08c14.22,9.85,22.71,25.89,22.71,42.91s-7.55,31.42-20.73,41.47Z"/></g><path class="cls-1" d="m112.77,176.21c-29.52,0-53.54-24.02-53.54-53.54s24.02-53.54,53.54-53.54c14.3,0,27.74,5.57,37.86,15.68l-16.26,16.26c-5.77-5.77-13.44-8.94-21.59-8.94-16.84,0-30.54,13.7-30.54,30.54s13.7,30.54,30.54,30.54c8.46,0,18.79-6.05,24.62-12.19l13.24,19.4c-10.06,10.6-23.25,15.79-37.86,15.79Z"/></g></svg>