<?xml version="1.0" encoding="UTF-8"?><svg id="Layer_2" xmlns="http://www.w3.org/2000/svg" viewBox="0 0 222.13 224.62"><defs><style>.cls-1{opacity:.31;stroke:#fcf8e2;}.cls-1,.cls-2,.cls-3,.cls-4,.cls-5,.cls-6{fill:none;}.cls-1,.cls-2,.cls-4,.cls-5{stroke-miterlimit:10;}.cls-1,.cls-3,.cls-4,.cls-5,.cls-6{stroke-linecap:round;}.cls-1,.cls-5,.cls-6{stroke-width:4px;}.cls-7{letter-spacing:.05em;}.cls-8{fill:#364f54;}.cls-9{fill:#fff;font-family:VisbyRoundCF-Regular, 'Visby Round CF';font-size:20px;}.cls-10{letter-spacing:.05em;}.cls-11{letter-spacing:.04em;}.cls-2{stroke:#a09a5c;stroke-width:3px;}.cls-3,.cls-4{stroke-width:5px;}.cls-3,.cls-4,.cls-5,.cls-6{stroke:#fff;}.cls-3,.cls-6{stroke-linejoin:round;}.cls-12{letter-spacing:.03em;}.cls-13{letter-spacing:.04em;}.cls-14{letter-spacing:.03em;}.cls-15{letter-spacing:.06em;}.cls-16{letter-spacing:.06em;}</style></defs><g id="Layer_1-2"><rect class="cls-8" width="222.13" height="224.62"/><polygon class="cls-2" points="111.35 177.96 75.32 105.67 111.35 33.39 147.39 105.67 111.35 177.96"/><line class="cls-1" x1="149.87" y1="105.67" x2="70.23" y2="105.67"/><line class="cls-5" x1="60.81" y1="105.67" x2="21.37" y2="105.67"/><line class="cls-5" x1="195.32" y1="105.86" x2="155.88" y2="105.86"/><circle class="cls-5" cx="112.84" cy="105.67" r="1.8"/><line class="cls-4" x1="66.07" y1="125.11" x2="91.21" y2="76.81"/><line class="cls-3" x1="135.46" y1="105.88" x2="142.14" y2="95.2"/><line class="cls-4" x1="91.21" y1="76.81" x2="107.14" y2="98.06"/><line class="cls-4" x1="93.74" y1="96.77" x2="118.53" y2="135.51"/><line class="cls-4" x1="118.12" y1="96.77" x2="142.91" y2="135.51"/><path class="cls-5" d="m152.17,140.55c-9.43,10.44-23.07,17-38.24,17-28.45,0-51.51-23.06-51.51-51.51s23.06-51.51,51.51-51.51c15.17,0,28.82,6.56,38.24,17"/><line class="cls-6" x1="111.35" y1="157.55" x2="111.35" y2="164.79"/><line class="cls-6" x1="111.35" y1="47.3" x2="111.35" y2="54.54"/><text class="cls-9" transform="translate(6.34 205.34)"><tspan class="cls-16" x="0" y="0">Al</tspan><tspan class="cls-12" x="20.06" y="0">e</tspan><tspan class="cls-13" x="32.34" y="0">x</tspan><tspan class="cls-16" x="42.86" y="0">ande</tspan><tspan class="cls-11" x="94.98" y="0">r</tspan><tspan class="cls-16" x="103.4" y="0" xml:space="preserve"> Wit</tspan><tspan class="cls-7" x="144.1" y="0">t</tspan><tspan class="cls-14" x="151.3" y="0">ev</tspan><tspan class="cls-10" x="174.72" y="0">e</tspan><tspan class="cls-15" x="187.4" y="0">en</tspan></text></g></svg>